<svg xmlns="http://www.w3.org/2000/svg" fill="none" viewBox="0 0 59 22" width="59" height="22">
    <path
            fill="#0B0000"
            fill-rule="evenodd"
            d="M30.83 18.43v-5.42l-6.21-2.44 3.26-3.2-4.28-3.85-1.21 2.35.05-2.26L17 5.37l.14 2.94.92-.24.96 10.4 3.82-.57v-3.47l7.98 4z"
            clip-rule="evenodd"
    />
    <path
            fill="#fff"
            fill-rule="evenodd"
            d="M18.03 6.12l3.3-.99.2 3.44 2.43-3.45 2.37 2.28L23 10.94l6.82 2.73v3.15l-7.92-4.02.01 4.21-2.05.28L19 6.77l-.93.24-.04-.89z"
            clip-rule="evenodd"
    />
    <path
            fill="#0B0000"
            fill-rule="evenodd"
            d="M43 4.04h-3.58l-.1.6h-3.78l-1.76 10.92 4.3.69.24-1.57 1.13 2.1.68-1.34.25 2.2 4.89.87L43 4.04z"
            clip-rule="evenodd"
    />
    <path
            fill="#fff"
            fill-rule="evenodd"
            d="M40.36 5.05h1.83l1.85 12.17-2.7-.42-.71-4.81-1.02 2.65-1.52-3.31h-.02l-.6 3.84-2.53-.45 1.5-9.1h2.57l.64 3.52.71-4.09z"
            clip-rule="evenodd"
    />
    <path
            fill="#0B0000"
            fill-rule="evenodd"
            d="M47.58 5.04l5.4 1.2.4 2.02.44-1.82 4.6 1.12L54 21.02l-3.39-1.08-.02-1.34-3.25-.47 1.1-9.87-.82-.19-.04-3.03z"
            clip-rule="evenodd"
    />
    <path
            fill="#fff"
            fill-rule="evenodd"
            d="M48.54 6.3l3.52.71 1.19 5.7 1.2-5.1 2.69.6-3.77 11.56-1.88-.57-.16-6.99-.95 5.4-2.04-.33.92-9.8-.77-.2.05-.98z"
            clip-rule="evenodd"
    />
    <path
            fill="#0B0000"
            fill-rule="evenodd"
            d="M47.06 16.58a4.1 4.1 0 01-3.4-.14 3.62 3.62 0 01-1.82-2.42c-.5-2.11.88-4.52 3.07-5.37a4.12 4.12 0 013.44.14c.91.5 1.55 1.33 1.8 2.36.5 2.14-.88 4.58-3.09 5.43z"
            clip-rule="evenodd"
    />
    <path
            fill="#fff"
            fill-rule="evenodd"
            d="M49.29 11.35c-.4-1.7-2.19-2.55-4.02-1.85-1.78.69-2.95 2.64-2.55 4.33.41 1.75 2.19 2.6 4.02 1.9 1.8-.69 2.96-2.65 2.55-4.38z"
            clip-rule="evenodd"
    />
    <path
            fill="#0B0000"
            fill-rule="evenodd"
            d="M47.95 11.64a1.7 1.7 0 01-1.82 1.6 1.7 1.7 0 01-1.68-1.74c.04-.88.84-1.58 1.83-1.54.97.04 1.71.8 1.67 1.68z"
            clip-rule="evenodd"
    />
    <path
            fill="#fff"
            fill-rule="evenodd"
            d="M46.7 10c-.58-.02-1.08.39-1.1.91-.02.53.44.98 1.03 1 .59.03 1.08-.38 1.1-.9.02-.54-.44-.99-1.03-1.01z"
            clip-rule="evenodd"
    />
    <path
            fill="#0B0000"
            fill-rule="evenodd"
            d="M17.28 17.76c-1.19.5-2.48.5-3.54 0a3.77 3.77 0 01-2-2.44c-.6-2.17.73-4.74 2.98-5.72a4.3 4.3 0 013.58 0 3.7 3.7 0 011.96 2.38c.62 2.2-.72 4.8-2.98 5.78z"
            clip-rule="evenodd"
    />
    <path
            fill="#fff"
            fill-rule="evenodd"
            d="M19.4 12.12c-.48-1.77-2.4-2.58-4.29-1.77-1.84.8-2.98 2.9-2.48 4.66.5 1.82 2.4 2.63 4.3 1.82 1.84-.8 2.98-2.91 2.48-4.71z"
            clip-rule="evenodd"
    />
    <path
            fill="#0B0000"
            fill-rule="evenodd"
            d="M18.12 12.45a1.7 1.7 0 01-1.75 1.67 1.7 1.7 0 01-1.75-1.67c0-.88.78-1.62 1.76-1.62.97 0 1.74.74 1.74 1.62z"
            clip-rule="evenodd"
    />
    <path
            fill="#fff"
            fill-rule="evenodd"
            d="M16.81 10.86c-.59 0-1.07.43-1.07.96 0 .52.48.95 1.07.95.59 0 1.07-.43 1.07-.95 0-.53-.48-.96-1.07-.96z"
            clip-rule="evenodd"
    />
    <path
            fill="#000"
            fill-rule="evenodd"
            d="M10.7 14.5c2.56-1.9 3.79-4.78 2.86-6.95a4.67 4.67 0 00-1.99-2.21 4.75 4.75 0 00-2.1-.76c-1.88-.33-4.13 0-6.34.96-.81.35-1.57.76-2.26 1.2L0 7.29l.52.9 1.62 2.77.5.85.89-.43.12-.06 4.03 9.11.39.88.9-.3 2.19-.7.95-.31-.25-.98-1.16-4.51z"
            clip-rule="evenodd"
    />
    <path
            fill="#fff"
            fill-rule="evenodd"
            d="M12.59 7.98a3.69 3.69 0 00-1.6-1.75 3.82 3.82 0 00-1.7-.6 10.34 10.34 0 00-5.75.9c-.76.32-1.46.69-2.1 1.1l1.61 2.78 1.11-.55 4.48 10.13 2.19-.7-1.35-5.25c2.58-1.6 3.89-4.24 3.1-6.06z"
            clip-rule="evenodd"
    />
    <path
            fill="#0B0000"
            fill-rule="evenodd"
            d="M35.52 10.65L34 9.25l.75-.82.68-.73-.62-.77a4.98 4.98 0 00-5.22-1.63c-2.85.7-4.46 3.18-3.82 5.9.25 1.1.93 2.03 1.91 2.64 1.17.73 2.65.93 4.14.56a7.3 7.3 0 003.77-2.1l.82-.85-.88-.8z"
            clip-rule="evenodd"
    />
    <path
            fill="#fff"
            fill-rule="evenodd"
            d="M33.16 9.98a2.88 2.88 0 01-2.45 1.16L34 7.58a3.98 3.98 0 00-4.2-1.27c-2.15.52-3.6 2.34-3.06 4.65.43 1.87 2.46 3 4.82 2.43a6.35 6.35 0 003.31-1.84l-1.72-1.57z"
            clip-rule="evenodd"
    />
    <path fill="#0B0000" fill-rule="evenodd" d="M28 4.71L32.06 0l2.24 3.38-5.11 2.78L28 4.71z" clip-rule="evenodd" />
    <path fill="#fff" fill-rule="evenodd" d="M31.88 1.5l1.18 1.63-3.38 1.7-.24-.37 2.44-2.96z" clip-rule="evenodd" />
    <path
            fill="#000"
            fill-rule="evenodd"
            d="M29.37 10.04c-.24-.45-.2-1.03.17-1.43.35-.38.88-.5 1.33-.32l-1.5 1.75zm.17-1.43c-.36.4-.41.98-.17 1.43l1.5-1.75a1.2 1.2 0 00-1.33.32zm2.17-.58a1.87 1.87 0 00-2.66.13 1.92 1.92 0 00.33 2.85l2.46-2.84-.13-.14zm-2.34 2c-.24-.44-.2-1.02.17-1.42.35-.38.88-.5 1.33-.32l-1.5 1.75zM10.89 9.71c-.2-1.07-1.57-1.67-2.96-.92l.35 1.23.54 1.82.25.82c1.04-.66 2.08-1.46 1.82-2.95zm-1.37 1.64l-.48-1.57-.14-.5c.3-.05.58-.02.8.1.14.06.36.2.4.48.12.61-.1 1.05-.58 1.5zM11.48 21.96l.01.03v-.03zM54.97 19.8h1v.15h-.41v1.1h-.17v-1.1h-.42v-.15zM56.11 21.04V19.8h.24l.36 1.05.34-1.05h.24v1.24h-.16v-.73-.12-.2l-.34 1.05h-.16L56.27 20v.17l.01.14v.73h-.17z"
            clip-rule="evenodd"
    />
</svg>
