<svg xmlns="http://www.w3.org/2000/svg" fill="none" viewBox="0 0 166 167" width="166" height="167"><g filter="url(#filter0_d)"><path fill="#1D1E1D" d="M79.02 141.956c34.66 0 62.757-28.149 62.757-62.872S113.68 16.213 79.02 16.213 16.264 44.36 16.264 79.084s28.097 62.872 62.756 62.872z"/><path fill="#C5312A" d="M145.623 72.098C142.135 38.332 113.65 12 79.02 12c-34.63 0-63.112 26.332-66.6 60.098h133.203z"/><path fill="#E7E7E9" d="M12.42 86.07c3.488 33.767 31.974 60.098 66.6 60.098 34.627 0 63.115-26.331 66.6-60.098H12.42z"/><path fill="#1D1E1D" d="M79.02 100.222c11.653 0 21.099-9.463 21.099-21.137 0-11.674-9.446-21.138-21.099-21.138s-21.1 9.463-21.1 21.138c0 11.674 9.447 21.137 21.1 21.137z"/><path fill="#F7F7F7" d="M94.344 85.192c3.366-8.475-.763-18.079-9.223-21.45-8.46-3.372-18.046.764-21.411 9.24-3.366 8.474.763 18.078 9.223 21.45s18.045-.765 21.411-9.24z"/><path fill="#B8B5B5" d="M79.021 90.226c6.142 0 11.121-4.988 11.121-11.141 0-6.154-4.979-11.142-11.12-11.142-6.143 0-11.122 4.988-11.122 11.142 0 6.153 4.98 11.14 11.121 11.14z"/><path fill="#F7F7F7" d="M79.021 89.405c5.69 0 10.302-4.62 10.302-10.32s-4.612-10.32-10.302-10.32c-5.69 0-10.301 4.62-10.301 10.32s4.612 10.32 10.301 10.32z"/></g><defs><filter id="filter0_d" width="165.203" height="166.168" x=".42" y="0" color-interpolation-filters="sRGB" filterUnits="userSpaceOnUse"><feFlood flood-opacity="0" result="BackgroundImageFix"/><feColorMatrix in="SourceAlpha" values="0 0 0 0 0 0 0 0 0 0 0 0 0 0 0 0 0 0 127 0"/><feOffset dx="4" dy="4"/><feGaussianBlur stdDeviation="8"/><feColorMatrix values="0 0 0 0 0.00392157 0 0 0 0 0.109804 0 0 0 0 0.25098 0 0 0 0.2 0"/><feBlend in2="BackgroundImageFix" result="effect1_dropShadow"/><feBlend in="SourceGraphic" in2="effect1_dropShadow" result="shape"/></filter></defs></svg>
