<svg xmlns="http://www.w3.org/2000/svg" fill="none" viewBox="0 0 77 77" width="77" height="77"><g clip-path="url(#clip0)" opacity=".9"><path fill="#1D1E1D" d="M63.493 60.406c11.938-13.941 10.322-34.922-3.61-46.861-13.932-11.94-34.903-10.317-46.84 3.624C1.103 31.11 2.72 52.091 16.652 64.031c13.931 11.939 34.902 10.316 46.84-3.625z"/><path fill="#42484A" d="M73.139 32.383C69.925 14.73 53.822 2.018 35.545 3.432 17.27 4.846 3.308 19.885 2.836 37.823l70.303-5.44z"/><path fill="#E7E7E9" d="M3.404 45.188C6.618 62.84 22.721 75.552 40.993 74.138c18.272-1.414 32.242-16.453 32.709-34.391l-70.298 5.44z"/><path fill="#1D1E1D" d="M39.128 49.926c6.15-.476 10.751-5.85 10.277-12.002-.474-6.152-5.844-10.754-11.993-10.278-6.15.476-10.751 5.849-10.277 12.001.474 6.153 5.843 10.755 11.993 10.279z"/><path fill="#F7F7F7" d="M38.94 47.49c4.805-.372 8.4-4.57 8.03-9.377-.37-4.807-4.566-8.403-9.37-8.03-4.805.371-8.4 4.57-8.03 9.376.37 4.807 4.566 8.403 9.37 8.03z"/><path fill="#B8B5B5" d="M38.723 44.66a5.893 5.893 0 00-.905-11.748 5.893 5.893 0 00.905 11.748z"/><path fill="#F7F7F7" d="M38.69 44.227a5.458 5.458 0 00-.839-10.881 5.458 5.458 0 00.839 10.88z"/><path fill="#C5312A" d="M33.23 25.378l-.358-4.639 4.422-.342 2.549 4.47 2.515-.195-2.618-4.59a4.444 4.444 0 003.04-4.555 4.44 4.44 0 00-4.763-4.082l-8.102.627.088 1.136.593 7.708.358 4.638 2.276-.176zm-.864-11.205l5.827-.45a2.153 2.153 0 11.33 4.294l-5.826.45-.33-4.294z"/></g><defs><clipPath id="clip0"><path fill="#fff" d="M0 0h70.513v70.921H0z" transform="rotate(-4.425 79.818 -2.055) skewX(-.019)"/></clipPath></defs></svg>
